<svg width="100" height="60" viewBox="0 0 100 60" fill="none" xmlns="http://www.w3.org/2000/svg">
<path d="M28.181 21.8182C28.181 23.0488 28.314 24.0466 28.5469 24.7783C28.8129 25.51 29.1455 26.3082 29.6111 27.1729C29.7774 27.439 29.844 27.7051 29.844 27.9379C29.844 28.2705 29.6444 28.603 29.212 28.9356L27.1167 30.3325C26.8174 30.5321 26.5181 30.6318 26.252 30.6318C25.9194 30.6318 25.5868 30.4656 25.2542 30.1662C24.7886 29.6673 24.3895 29.1352 24.0569 28.603C23.7243 28.0376 23.3917 27.4057 23.0259 26.6408C20.4317 29.7006 17.1723 31.2305 13.2477 31.2305C10.454 31.2305 8.22562 30.4323 6.59593 28.8359C4.96624 27.2394 4.13477 25.1109 4.13477 22.4501C4.13477 19.6231 5.13254 17.3283 7.16133 15.5988C9.19013 13.8693 11.8841 13.0046 15.3098 13.0046C16.4406 13.0046 17.6046 13.1044 18.8352 13.2707C20.0658 13.437 21.3297 13.703 22.66 14.0024V11.5744C22.66 9.04676 22.1279 7.28404 21.0968 6.25301C20.0326 5.22198 18.2366 4.7231 15.6756 4.7231C14.5116 4.7231 13.3142 4.85613 12.0837 5.15546C10.8531 5.45479 9.65576 5.82064 8.49169 6.28627C7.95955 6.51908 7.56044 6.65212 7.32763 6.71864C7.09481 6.78515 6.92852 6.81841 6.79548 6.81841C6.32986 6.81841 6.09704 6.48582 6.09704 5.78738V4.15769C6.09704 3.62555 6.16356 3.22644 6.32986 2.99363C6.49615 2.76082 6.79548 2.528 7.26111 2.29519C8.42517 1.69653 9.82205 1.19764 11.4517 0.798536C13.0814 0.36617 14.8109 0.166616 16.6401 0.166616C20.598 0.166616 23.4915 1.06461 25.354 2.86059C27.1832 4.65658 28.1145 7.38382 28.1145 11.0423V21.8182H28.181ZM14.6779 26.8736C15.7754 26.8736 16.9062 26.674 18.1035 26.2749C19.3009 25.8758 20.3651 25.1441 21.2631 24.1463C21.7953 23.5144 22.1944 22.816 22.3939 22.0178C22.5935 21.2196 22.7265 20.255 22.7265 19.1242V17.7274C21.762 17.4945 20.731 17.295 19.6667 17.162C18.6024 17.0289 17.5714 16.9624 16.5404 16.9624C14.312 16.9624 12.6823 17.3948 11.5848 18.2928C10.4872 19.1908 9.95509 20.4546 9.95509 22.1175C9.95509 23.6807 10.3542 24.8448 11.1857 25.643C11.9839 26.4745 13.1479 26.8736 14.6779 26.8736V26.8736ZM41.3848 30.4656C40.7862 30.4656 40.387 30.3658 40.121 30.133C39.8549 29.9334 39.6221 29.4678 39.4225 28.8359L31.6067 3.12666C31.4071 2.46149 31.3073 2.02912 31.3073 1.79631C31.3073 1.26416 31.5734 0.964831 32.1056 0.964831H35.3649C35.9969 0.964831 36.4292 1.06461 36.662 1.29742C36.9281 1.49697 37.1277 1.9626 37.3272 2.59452L42.9147 24.612L48.1031 2.59452C48.2694 1.92934 48.469 1.49697 48.735 1.29742C49.0011 1.09787 49.4667 0.964831 50.0654 0.964831H52.7261C53.358 0.964831 53.7904 1.06461 54.0565 1.29742C54.3226 1.49697 54.5554 1.9626 54.6884 2.59452L59.9433 24.878L65.6971 2.59452C65.8967 1.92934 66.1295 1.49697 66.3623 1.29742C66.6284 1.09787 67.0607 0.964831 67.6594 0.964831H70.7525C71.2846 0.964831 71.584 1.2309 71.584 1.79631C71.584 1.9626 71.5507 2.1289 71.5174 2.32845C71.4842 2.528 71.4177 2.79408 71.2846 3.15992L63.2692 28.8691C63.0697 29.5343 62.8369 29.9667 62.5708 30.1662C62.3047 30.3658 61.8723 30.4988 61.3069 30.4988H58.4467C57.8147 30.4988 57.3824 30.399 57.1163 30.1662C56.8502 29.9334 56.6174 29.501 56.4844 28.8359L51.3292 7.38381L46.2074 28.8026C46.0411 29.4678 45.8415 29.9001 45.5754 30.133C45.3094 30.3658 44.8437 30.4656 44.2451 30.4656H41.3848ZM84.1226 31.3635C82.3931 31.3635 80.6637 31.164 79.0007 30.7649C77.3378 30.3658 76.0407 29.9334 75.1759 29.4345C74.6438 29.1352 74.2779 28.8026 74.1449 28.5033C74.0119 28.2039 73.9454 27.8713 73.9454 27.572V25.8758C73.9454 25.1774 74.2114 24.8448 74.7103 24.8448C74.9099 24.8448 75.1094 24.878 75.309 24.9446C75.5085 25.0111 75.8079 25.1441 76.1404 25.2771C77.2713 25.776 78.5018 26.1751 79.7989 26.4412C81.1293 26.7073 82.4264 26.8403 83.7567 26.8403C85.8521 26.8403 87.4818 26.4745 88.6126 25.7428C89.7434 25.0111 90.342 23.9468 90.342 22.5832C90.342 21.6519 90.0427 20.887 89.444 20.255C88.8454 19.6231 87.7146 19.0577 86.0849 18.5256L81.2623 17.0289C78.8344 16.264 77.0384 15.1332 75.9409 13.6365C74.8433 12.1731 74.2779 10.5434 74.2779 8.81395C74.2779 7.41707 74.5773 6.18649 75.1759 5.1222C75.7746 4.05792 76.5728 3.12667 77.5706 2.39497C78.5683 1.63001 79.6992 1.06461 81.0295 0.6655C82.3599 0.266393 83.7567 0.100098 85.2201 0.100098C85.9518 0.100098 86.7168 0.133357 87.4485 0.233134C88.2135 0.332911 88.9119 0.465946 89.6103 0.598982C90.2755 0.765277 90.9074 0.931572 91.5061 1.13113C92.1047 1.33068 92.5704 1.53023 92.903 1.72979C93.3686 1.99586 93.7012 2.26193 93.9007 2.56126C94.1003 2.82733 94.2001 3.19318 94.2001 3.65881V5.22198C94.2001 5.92042 93.934 6.28627 93.4351 6.28627C93.169 6.28627 92.7367 6.15323 92.1713 5.88716C90.2755 5.02243 88.1469 4.59006 85.7855 4.59006C83.8898 4.59006 82.3931 4.88939 81.3621 5.52131C80.3311 6.15323 79.7989 7.11774 79.7989 8.48136C79.7989 9.41261 80.1315 10.2108 80.7967 10.8428C81.4619 11.4747 82.6925 12.1066 84.4552 12.672L89.178 14.1686C91.5726 14.9336 93.3021 15.9979 94.3331 17.3615C95.3641 18.7251 95.863 20.2883 95.863 22.0178C95.863 23.4479 95.5637 24.745 94.9983 25.8758C94.3996 27.0066 93.6014 28.0044 92.5704 28.8026C91.5393 29.6341 90.3088 30.2327 88.8786 30.6651C87.382 31.1307 85.8188 31.3635 84.1226 31.3635V31.3635Z" fill="#252F3E"/>
<path fill-rule="evenodd" clip-rule="evenodd" d="M90.4085 47.5274C79.4663 55.6094 63.5685 59.8998 49.8991 59.8998C30.7419 59.8998 13.4805 52.8156 0.443015 41.0419C-0.588012 40.1107 0.343238 38.8468 1.57382 39.5785C15.6756 47.7602 33.07 52.7158 51.0631 52.7158C63.2026 52.7158 76.5395 50.1881 88.812 44.9997C90.6413 44.1683 92.2044 46.1971 90.4085 47.5274V47.5274Z" fill="#FF9900"/>
<path fill-rule="evenodd" clip-rule="evenodd" d="M94.965 42.339C93.5681 40.543 85.7191 41.4743 82.1604 41.9067C81.0961 42.0397 80.9298 41.1084 81.8943 40.41C88.1469 36.0198 98.4239 37.2837 99.6212 38.7471C100.819 40.2437 99.2886 50.5207 93.4351 55.4431C92.5371 56.208 91.6724 55.8089 92.0715 54.8111C93.4018 51.5185 96.3619 44.1018 94.965 42.339V42.339Z" fill="#FF9900"/>
</svg>
