<svg width="88" height="100" viewBox="0 0 88 100" fill="none" xmlns="http://www.w3.org/2000/svg">
<path d="M88 0L79.983 89.9895L43.9461 100L8.00853 90.0037L0 0H88Z" fill="#264DE4"/>
<path d="M73.1195 84.2593L79.9706 7.35913H44V92.3484L73.1195 84.2593Z" fill="#2965F1"/>
<path d="M18.3594 40.7402L19.3468 51.7787H44V40.7402H18.3594Z" fill="#EBEBEB"/>
<path d="M44 18.3977H43.9619H16.3754L17.3769 29.4364H44V18.3977Z" fill="#EBEBEB"/>
<path d="M44 80.8931V69.4083L43.9517 69.4212L31.6824 66.1016L30.898 57.2979H24.9361H19.839L21.3825 74.63L43.9493 80.9072L44 80.8931Z" fill="#EBEBEB"/>
<path d="M57.5277 51.7785L56.249 66.0947L43.9619 69.4177V80.9019L66.5467 74.6301L66.7124 72.7652L69.3012 43.7042L69.57 40.7401L71.5589 18.3977H43.9619V29.4364H59.4855L58.4831 40.7401H43.9619V51.7785H57.5277Z" fill="white"/>
</svg>
