<svg width="80" height="119" viewBox="0 0 80 119" fill="none" xmlns="http://www.w3.org/2000/svg">
<path d="M20 119C31.04 119 40 110.115 40 99.1668V79.3335H20C8.96 79.3335 0 88.2188 0 99.1668C0 110.115 8.96 119 20 119Z" fill="#0ACF83"/>
<path d="M0 59.4998C0 48.5518 8.96 39.6665 20 39.6665H40V79.3331H20C8.96 79.3331 0 70.4478 0 59.4998Z" fill="#A259FF"/>
<path d="M0 19.8333C0 8.88533 8.96 0 20 0H40V39.6666H20C8.96 39.6666 0 30.7813 0 19.8333Z" fill="#F24E1E"/>
<path d="M39.9999 0H60C71.04 0 80 8.88533 80 19.8333C80 30.7813 71.04 39.6666 60 39.6666H39.9999V0Z" fill="#FF7262"/>
<path d="M80 59.4998C80 70.4478 71.04 79.3331 60 79.3331C48.9599 79.3331 39.9999 70.4478 39.9999 59.4998C39.9999 48.5518 48.9599 39.6665 60 39.6665C71.04 39.6665 80 48.5518 80 59.4998Z" fill="#1ABCFE"/>
</svg>
