<svg width="48" height="48" viewBox="0 0 48 48" fill="none" xmlns="http://www.w3.org/2000/svg">
<g clip-path="url(#clip0_3_2)">
<path d="M23.9072 0C10.7053 0 0 11.0027 0 24.5756C0 35.434 6.85013 44.6459 16.3493 47.8956C17.544 48.123 17.9828 47.3624 17.9828 46.7133C17.9828 46.1273 17.9604 44.1912 17.9503 42.1378C11.2991 43.6244 9.89569 39.2382 9.89569 39.2382C8.80819 36.3975 7.24125 35.6423 7.24125 35.6423C5.07225 34.117 7.40475 34.1482 7.40475 34.1482C9.8055 34.3217 11.0696 36.6808 11.0696 36.6808C13.2019 40.438 16.6624 39.3517 18.0266 38.7239C18.2411 37.1353 18.8608 36.0513 19.5444 35.4377C14.2344 34.8161 8.65219 32.7088 8.65219 23.2922C8.65219 20.6092 9.58613 18.4167 11.1156 16.6957C10.8673 16.0767 10.0491 13.5772 11.3471 10.192C11.3471 10.192 13.3547 9.53151 17.9233 12.7112C19.8302 12.1665 21.8754 11.8936 23.9072 11.8843C25.9389 11.8936 27.9857 12.1665 29.8963 12.7112C34.4595 9.53151 36.4643 10.192 36.4643 10.192C37.7655 13.5772 36.9469 16.0767 36.6986 16.6957C38.2314 18.4167 39.159 20.609 39.159 23.2922C39.159 32.7312 33.5663 34.8097 28.2428 35.418C29.1002 36.1807 29.8643 37.6764 29.8643 39.969C29.8643 43.2572 29.8365 45.9038 29.8365 46.7133C29.8365 47.3673 30.2668 48.1336 31.4788 47.8923C40.9727 44.639 47.8142 35.4303 47.8142 24.5756C47.8142 11.0027 37.1104 0 23.9072 0Z" fill="#F8F8F9"/>
<path d="M8.95404 35.0086C8.90154 35.1306 8.71442 35.1672 8.54436 35.0836C8.37092 35.0034 8.27342 34.8369 8.32967 34.7143C8.38123 34.5886 8.56836 34.5535 8.74142 34.638C8.91523 34.7179 9.01423 34.886 8.95404 35.0086ZM10.13 36.0872C10.016 36.1959 9.79311 36.1454 9.64179 35.9737C9.48542 35.8023 9.45617 35.5733 9.57186 35.4629C9.68942 35.3544 9.90561 35.4051 10.0624 35.5766C10.2187 35.7499 10.2491 35.9775 10.1299 36.0874M10.9369 37.4672C10.7902 37.5719 10.5506 37.4738 10.4027 37.2552C10.2562 37.0368 10.2562 36.7747 10.4059 36.6697C10.5544 36.5646 10.7902 36.6591 10.9402 36.8759C11.0865 37.0981 11.0865 37.3602 10.9367 37.4674M12.3011 39.0656C12.17 39.214 11.891 39.1743 11.6867 38.9716C11.4778 38.7734 11.4195 38.4922 11.5509 38.3436C11.6835 38.1948 11.9642 38.2366 12.17 38.4377C12.3776 38.6354 12.4408 38.9188 12.3011 39.0656ZM14.0644 39.6053C14.0068 39.7977 13.7379 39.8852 13.4672 39.8035C13.1968 39.7192 13.0198 39.4937 13.0744 39.2992C13.1306 39.1055 13.4006 39.0144 13.6734 39.1019C13.9434 39.1857 14.1206 39.4095 14.0644 39.6053ZM16.0714 39.8341C16.0781 40.0369 15.8484 40.2049 15.5642 40.2086C15.2782 40.215 15.047 40.0509 15.044 39.8516C15.044 39.6469 15.2685 39.4804 15.5542 39.4756C15.8385 39.4698 16.0714 39.6327 16.0714 39.8341ZM18.0427 39.7564C18.0769 39.9542 17.8792 40.1573 17.597 40.2113C17.3195 40.2633 17.0627 40.1413 17.0272 39.9453C16.9927 39.7425 17.1941 39.5396 17.471 39.487C17.7538 39.4365 18.0067 39.5554 18.0427 39.7564Z" fill="#161614"/>
</g>
<defs>
<clipPath id="clip0_3_2">
<rect width="48" height="48" fill="white"/>
</clipPath>
</defs>
</svg>
