<svg width="125" height="125" viewBox="0 0 125 125" fill="none" xmlns="http://www.w3.org/2000/svg">
<path d="M74.7529 80.8967L44.0962 74.4905C43.9678 74.7388 43.825 74.9792 43.6685 75.2107L71.5771 115.922L73.2607 114.24L78.0088 84.7145C77.2063 84.3755 76.494 83.8537 75.9288 83.1908C75.3635 82.5279 74.9609 81.7422 74.7529 80.8962V80.8967ZM63.5693 40.8221C62.4209 42.5838 60.4385 43.7498 58.1807 43.7498C57.833 43.7498 57.4951 43.7146 57.1631 43.6619L43.1821 65.5371L80.5347 49.4631C80.5229 49.3127 80.4897 49.1721 80.4897 49.0178C80.4897 48.7033 80.5327 48.3987 80.5835 48.0979L63.5693 40.8226V40.8221ZM64.585 36.8359L82.6831 44.574C83.2598 44.1232 83.9194 43.7901 84.6245 43.5936L87.5991 25.0978L76.2666 13.7654L63.5107 33.7251C64.1359 34.6498 64.5064 35.7229 64.585 36.8363V36.8359ZM102.507 40.0057L91.1499 28.6465L88.6812 43.9822C89.307 44.2969 89.8692 44.7247 90.3394 45.2439L102.507 40.0057V40.0057ZM75.2959 76.8572C75.7404 76.0503 76.3789 75.3669 77.1537 74.8687C77.9286 74.3705 78.8153 74.0732 79.7339 74.0037L82.9956 53.7169C82.7397 53.547 82.5112 53.3439 82.2866 53.1349L44.7192 69.3026C44.8149 69.6952 44.8813 70.0956 44.9126 70.5116L75.2959 76.8572V76.8572ZM105.601 43.1014L92.4604 48.7556L124.883 62.6172L125 62.5L105.601 43.1014ZM82.1187 84.7755L78.1694 109.328L101.101 86.3966L84.5835 82.9474C83.95 83.7764 83.0958 84.4099 82.1187 84.7755V84.7755ZM37.5454 78.4631C36.7153 78.4631 35.9204 78.3206 35.1763 78.0681L27.5591 89.9883L24.6157 87.047L31.8306 75.7581C31.6521 75.5367 31.4859 75.3057 31.3325 75.0662L18.2622 80.6936L15.1641 77.5955L29.4707 71.4374L3.60596 66.039L0.0683594 62.5L1.1875 61.3809L31.0142 67.6073C31.3572 66.9567 31.7963 66.3614 32.3169 65.8417L17.8403 44.7264L20.7642 41.8026L35.8887 63.8652C36.4318 63.7391 36.9873 63.6742 37.5449 63.6719C38.1836 63.6719 38.8027 63.7617 39.3945 63.914L53.5474 41.7694C52.3951 40.5741 51.7517 38.9784 51.7524 37.3183C51.7524 36.8105 51.8169 36.3183 51.9282 35.8456L34.272 28.2969L37.3691 25.1993L54.0977 32.3535C54.9459 31.6544 55.9598 31.1853 57.0418 30.9913C58.1239 30.7974 59.2376 30.8851 60.2759 31.2461L73.3247 10.824L62.501 0L0 62.5L62.501 125L68.6514 118.85L40.5337 77.8298C39.5927 78.247 38.5748 78.4627 37.5454 78.4631V78.4631ZM86.9741 54.5914L83.6558 75.2146C84.2357 75.6806 84.7159 76.2585 85.0679 76.9139C85.4198 77.5693 85.6364 78.2887 85.7046 79.0295L104.539 82.9611L121.785 65.7153L90.6558 52.4064C89.7651 53.5922 88.4417 54.3778 86.9741 54.5919V54.5914Z" fill="#25C7B7"/>
</svg>
